<svg width="40" height="38" viewBox="0 0 40 38" fill="none" xmlns="http://www.w3.org/2000/svg">
<path d="M21.7578 16.0016L1.79688 34.9571C1.0625 35.6547 1.0625 36.7829 1.79688 37.4731C2.53125 38.1633 3.71875 38.1708 4.44531 37.4731L10.2891 31.9215C10.8672 32.2629 11.4844 32.5301 12.1484 32.7008C15.6484 33.6063 21.0938 33.7325 26.4062 30.3852C27.3594 29.784 26.8594 28.5 25.7188 28.5H24.4609C24.0625 28.5 23.7422 28.1958 23.7422 27.8172C23.7422 27.5129 23.9531 27.2532 24.25 27.1641L31.8828 24.9895C32.1484 24.9153 32.3828 24.7594 32.5391 24.5368C32.8828 24.0618 33.2109 23.5793 33.5234 23.0821C34.0078 22.3176 33.4062 21.375 32.4688 21.375H29.4531C29.0547 21.375 28.7344 21.0708 28.7344 20.6922C28.7344 20.3879 28.9453 20.1282 29.2422 20.0391L35.5625 18.2356C35.9219 18.1317 36.2188 17.8793 36.3594 17.5454C38.6328 12.0977 39.6719 6.39029 39.9922 2.7313C40.0547 1.99654 39.7578 1.27661 39.2109 0.757082C38.6641 0.237551 37.9062 -0.0444806 37.1328 0.0148944C30.5859 0.519582 17.8516 3.00591 10.7344 9.76724C4.47656 15.7122 4.42969 22.4364 5.57031 26.4516C5.73438 27.0379 6.50781 27.1641 6.96094 26.7336L19.8125 14.5321C20.2969 14.0719 21.0938 14.0719 21.5781 14.5321C22 14.9329 22.0547 15.5415 21.75 16.0016H21.7578Z" fill="#9D81B1"/>
</svg>
